# xmcd CD database file
#
# Track frame offsets:
#	150
#	74278
#	118110
#	155918
#	189979
#	234693
#	280616
#
# Disc length: 4319 seconds
#
# Revision: 1
# Processed by: cddbd v1.5.2PL0 Copyright (c) Steve Scherf et al.
# Submitted via: CDex 1.51
#
DISCID=6110dd07
DTITLE=Krishna Das - Flow of Grace
DYEAR=2007
DGENRE=New Age
TTITLE0=Sri Ram Chalisa
TTITLE1=Hallelujah Chalisa
TTITLE2=Good Ole Chalisa
TTITLE3=Nina Chalisa
TTITLE4=Mountain Chalisa
TTITLE5=Bernie´s Chalisa
TTITLE6=Ring Song - Jaya Siya Ram
EXTD=YEAR: 2007
EXTT0=
EXTT1=
EXTT2=
EXTT3=
EXTT4=
EXTT5=
EXTT6=
PLAYORDER=
